<?xml version="1.0" encoding="iso-8859-1"?>
<!-- Generator: Adobe Illustrator 18.0.0, SVG Export Plug-In . SVG Version: 6.00 Build 0)  -->
<!DOCTYPE svg PUBLIC "-//W3C//DTD SVG 1.1//EN" "http://www.w3.org/Graphics/SVG/1.1/DTD/svg11.dtd">
<svg version="1.1" id="Capa_1" xmlns="http://www.w3.org/2000/svg" xmlns:xlink="http://www.w3.org/1999/xlink" x="0px" y="0px"
	 viewBox="0 0 392.619 392.619" style="enable-background:new 0 0 392.619 392.619;" xml:space="preserve">
<g>
	<path d="M310.724,0.929H81.896C36.738,0.929,0,37.667,0,82.825v226.969c0,45.158,36.738,81.896,81.896,81.896h228.828
		c45.157,0,81.896-36.738,81.896-81.896V82.825C392.619,37.667,355.881,0.929,310.724,0.929z M362.619,309.794
		c0,28.616-23.28,51.896-51.896,51.896H81.896C53.28,361.69,30,338.41,30,309.794V82.825c0-28.615,23.28-51.896,51.896-51.896
		h228.828c28.615,0,51.896,23.28,51.896,51.896V309.794z"/>
	<path d="M286.559,107.182c-5.839-5.877-15.336-5.908-21.214-0.069l-66.539,66.106l-66.572-66.572
		c-5.857-5.858-15.355-5.858-21.213,0c-5.858,5.858-5.858,15.355,0,21.213l66.502,66.503l-65.968,65.539
		c-5.877,5.839-5.907,15.336-0.069,21.213c2.933,2.952,6.786,4.428,10.642,4.428c3.822,0,7.646-1.452,10.572-4.359l66.037-65.608
		l66.073,66.073c2.929,2.929,6.768,4.394,10.606,4.394c3.838,0,7.678-1.465,10.606-4.394c5.858-5.858,5.858-15.355,0-21.213
		l-66.004-66.004l66.47-66.038C292.366,122.556,292.396,113.059,286.559,107.182z"/>
</g>
<g>
</g>
<g>
</g>
<g>
</g>
<g>
</g>
<g>
</g>
<g>
</g>
<g>
</g>
<g>
</g>
<g>
</g>
<g>
</g>
<g>
</g>
<g>
</g>
<g>
</g>
<g>
</g>
<g>
</g>
</svg>
