<?xml version="1.0" encoding="iso-8859-1"?>
<!-- Generator: Adobe Illustrator 19.0.0, SVG Export Plug-In . SVG Version: 6.00 Build 0)  -->
<svg version="1.1" id="Layer_1" xmlns="http://www.w3.org/2000/svg" xmlns:xlink="http://www.w3.org/1999/xlink" x="0px" y="0px"
	 viewBox="0 0 512.002 512.002" style="enable-background:new 0 0 512.002 512.002;" xml:space="preserve">
<g>
	<g>
		<path fill="#fff" d="M332.172,169.859v31.062h31.819c2.392,0,3.681-2.661,3.681-5.053v-26.009H332.172z"/>
	</g>
</g>
<g>
	<g>
		<path fill="#ec5242" d="M377.761,92.204h-25.009c1.274-0.958,2.398-1.904,3.286-2.791c8.822-8.824,8.822-23.179,0-32.002
			c-8.843-8.844-23.157-8.845-32.002,0c-2.21,2.21-4.565,5.506-6.667,9.218c-2.101-3.711-4.457-7.007-6.667-9.218
			c-8.843-8.842-23.157-8.845-32.002,0c-8.844,8.843-8.846,23.157,0,32.003c0.888,0.888,2.012,1.832,3.285,2.79h-25.356
			c-2.392,0-4.332,1.939-4.332,4.332v17.962c0.002,2.392,1.941,4.331,4.333,4.331h10.09v23.297h35.5v-23.297h29.953v23.297h35.5
			v-23.297h10.09c2.392,0,4.332-1.939,4.332-4.332V96.536C382.093,94.144,380.153,92.204,377.761,92.204z M310.175,88.843
			c-0.204,0.032-0.498,0.06-0.9,0.06c-6.14,0-17.079-5.756-20.693-9.372c-3.384-3.38-3.386-8.855-0.001-12.24
			c3.383-3.382,8.856-3.381,12.24,0C306,72.472,310.995,85.07,310.175,88.843z M346.156,79.534
			c-3.615,3.615-14.554,9.372-20.694,9.372c-0.402,0-0.694-0.028-0.9-0.06c-0.82-3.774,4.175-16.373,9.354-21.553
			c3.382-3.382,8.856-3.382,12.24,0C349.531,70.668,349.531,76.159,346.156,79.534z"/>
	</g>
</g>
<g>
	<g>
		<path fill="#ec5242" d="M307.855,169.651c-5.941-9.529-18.482-12.437-28.011-6.499l-29.62,18.464c-0.101-20.135-0.08-15.777-0.182-36.025
			c-0.133-26.398-21.718-47.876-48.118-47.876c-14.57,0-98.733,0-109.158,0c-26.4,0-47.984,21.477-48.118,47.877l-0.75,149.379
			c-0.057,11.229,9.001,20.378,20.23,20.435c0.034,0,0.069,0,0.104,0c11.005,0,20.274-8.919,20.331-20.23
			c0.019-3.666,0.747-148.7,0.75-149.379c0.011-2.165,1.772-3.913,3.936-3.907c2.164,0.006,3.915,1.763,3.915,3.927
			c0.001,50.886,0.009,341.786,0.009,341.786c0,13.475,10.924,24.4,24.399,24.4c13.454,0,24.4-10.915,24.4-24.399V292.571h10.535
			V487.6c0,13.475,10.924,24.4,24.399,24.4c13.469,0,24.399-10.918,24.399-24.399c0-318.482-0.432-143.836-0.443-341.772
			c0-2.343,1.895-4.246,4.238-4.256c2.343-0.01,4.254,1.877,4.273,4.221c0.037,7.18,0.327,65.186,0.364,72.444
			c0.037,7.368,4.058,14.141,10.51,17.701c6.465,3.567,14.339,3.343,20.579-0.548l60.528-37.729
			C310.886,191.721,313.796,179.18,307.855,169.651z"/>
	</g>
</g>
<g>
	<g>
		<path fill="#fff" d="M147.518,0c-23.282,0-42.14,18.874-42.14,42.14c0,23.282,18.87,42.141,42.14,42.141c23.248,0,42.14-18.827,42.14-42.141
			C189.658,18.871,170.796,0,147.518,0z"/>
	</g>
</g>
<g>
	<g>
		<path fill="#fff" d="M303.367,352.785c-4.039,0-6.364,2.203-6.364,7.038v17.073c0,4.833,2.325,7.037,6.364,7.037
			c3.977,0,6.425-2.203,6.425-7.037v-17.073C309.792,354.989,307.344,352.785,303.367,352.785z"/>
	</g>
</g>
<g>
	<g>
		<polygon points="375.461,355.784 370.137,374.57 380.785,374.57 		"/>
	</g>
</g>
<g>
	<g>
		<path fill="#fff" d="M268.361,352.785h-6.364v30.78h6.364c4.039,0,6.425-2.264,6.425-7.038v-16.706
			C274.786,355.049,272.399,352.785,268.361,352.785z"/>
	</g>
</g>
<g>
	<g>
		<path fill="#fff" d="M447.897,259.861H251.231c-11.16,0-20.207,9.047-20.207,20.207v173.489c0,11.16,9.047,20.207,20.207,20.207h11.802v29.225
			c0,4.977,4.035,9.011,9.011,9.011h19.696c4.977,0,9.011-4.035,9.011-9.011v-29.225h97.624v29.225c0,4.977,4.035,9.011,9.011,9.011
			h19.696c4.977,0,9.011-4.035,9.011-9.011v-29.225h11.803c11.16,0,20.207-9.047,20.207-20.207V280.068
			C468.104,268.907,459.057,259.861,447.897,259.861z M282.74,376.528c0,10.219-6.302,14.013-14.38,14.013h-10.832
			c-2.08,0-3.488-1.163-3.488-2.448v-39.836c0-1.286,1.408-2.448,3.488-2.448h10.832c8.077,0,14.38,3.794,14.38,14.013V376.528z
			 M317.747,376.895c0,10.219-6.303,14.013-14.381,14.013s-14.32-3.794-14.32-14.013v-17.073c0-10.219,6.241-14.013,14.32-14.013
			s14.381,3.794,14.381,14.013V376.895z M350.245,390.541c-1.897,0-3.549-0.612-4.589-2.509L332.5,363.433v24.599
			c0,1.652-2.019,2.509-3.977,2.509c-2.019,0-3.977-0.856-3.977-2.509v-39.714c0-1.714,1.958-2.509,3.977-2.509
			c2.877,0,4.039,0.612,5.936,4.222l11.808,22.826v-24.599c0-1.714,1.958-2.448,3.977-2.448c1.958,0,3.977,0.734,3.977,2.448v39.774
			h0.001C354.222,389.684,352.203,390.541,350.245,390.541z M387.516,390.541c-1.346,0-2.386-0.428-2.692-1.591l-2.325-8.138
			h-14.012l-2.325,8.138c-0.306,1.163-1.347,1.591-2.692,1.591c-2.142,0-5.018-1.346-5.018-3.305c0-0.122,0.061-0.367,0.122-0.612
			l11.81-38.49c0.55-1.836,2.814-2.692,5.079-2.692c2.325,0,4.589,0.856,5.14,2.692l11.81,38.49
			c0.061,0.245,0.122,0.428,0.122,0.612C392.534,389.135,389.658,390.541,387.516,390.541z M418.607,352.968h-8.934v35.064
			c0,1.652-2.019,2.509-3.977,2.509c-2.019,0-3.977-0.856-3.977-2.509v-35.064h-8.996c-1.591,0-2.508-1.652-2.508-3.61
			c0-1.713,0.795-3.549,2.508-3.549h25.885c1.713,0,2.509,1.836,2.509,3.549C421.117,351.255,420.198,352.968,418.607,352.968z
			 M442.722,365.022v0.002c1.592,0,2.509,1.53,2.509,3.182c0,1.408-0.795,3.06-2.509,3.06h-9.301v12.299h17.317
			c1.591,0,2.509,1.652,2.509,3.549c0,1.652-0.795,3.427-2.509,3.427h-21.785c-1.775,0-3.488-0.856-3.488-2.509v-39.714
			c0-1.653,1.713-2.509,3.488-2.509h21.785c1.713,0,2.509,1.775,2.509,3.427c0,1.897-0.919,3.549-2.509,3.549h-17.317v12.239
			H442.722z"/>
	</g>
</g>
<g>
</g>
<g>
</g>
<g>
</g>
<g>
</g>
<g>
</g>
<g>
</g>
<g>
</g>
<g>
</g>
<g>
</g>
<g>
</g>
<g>
</g>
<g>
</g>
<g>
</g>
<g>
</g>
<g>
</g>
</svg>
