<?xml version="1.0" encoding="iso-8859-1"?>
<!-- Generator: Adobe Illustrator 19.0.0, SVG Export Plug-In . SVG Version: 6.00 Build 0)  -->
<svg version="1.1" id="Layer_1" xmlns="http://www.w3.org/2000/svg" xmlns:xlink="http://www.w3.org/1999/xlink" x="0px" y="0px"
	 viewBox="0 0 512 512" style="enable-background:new 0 0 512 512;" xml:space="preserve">
<path fill="#ec5242" d="M147.353,286.389l30.519,22.17l-30.519,22.17c-7.981,5.798-9.751,16.966-3.953,24.946
	c5.799,7.984,16.967,9.749,24.947,3.953l36.294-26.364c44.627,45.825,135.83,37.294,165.213-16.093
	c2.952-5.362,2.952-11.862,0-17.223c-29.323-53.28-120.475-62.033-165.213-16.093l-36.294-26.364
	c-7.979-5.799-19.15-4.029-24.947,3.953C137.602,269.423,139.372,280.591,147.353,286.389z M332.083,308.56
	c-24.463,24.988-77.272,24.951-101.699,0C254.846,283.572,307.655,283.608,332.083,308.56z"/>
<path fill="#fff" d="M474.591,0H37.41c-9.864,0-17.86,7.997-17.86,17.86v105.118c0,9.864,7.997,17.86,17.86,17.86h24.856v353.3
	c0,9.864,7.997,17.86,17.86,17.86h351.748c9.864,0,17.86-7.997,17.86-17.86v-353.3h24.856c9.864,0,17.86-7.997,17.86-17.86V17.86
	C492.452,7.997,484.455,0,474.591,0z M414.015,402.954H97.987V214.165h316.027v188.789H414.015z M97.987,476.279v-37.605h316.027
	v37.605H97.987z M414.015,178.444H97.987v-37.605h316.027v37.605H414.015z M456.731,105.118c-7.632,0-399.016,0-401.46,0V35.721
	h401.46V105.118z"/>
<g>
</g>
<g>
</g>
<g>
</g>
<g>
</g>
<g>
</g>
<g>
</g>
<g>
</g>
<g>
</g>
<g>
</g>
<g>
</g>
<g>
</g>
<g>
</g>
<g>
</g>
<g>
</g>
<g>
</g>
</svg>
