<svg xmlns="http://www.w3.org/2000/svg" id="bc2e1d04-e96e-4a54-8462-be467d7426dc" data-name="Layer 1" width="62" height="55" viewBox="0 0 62 55"><path d="M57.752,46.1562a7.8332,7.8332,0,0,1-1.087-.4257,5.8966,5.8966,0,0,0,1.9141-4.335V38.9541a6.08,6.08,0,0,0-12.1582,0v1.9565L32,32.4278V22h7.3926A1.6015,1.6015,0,0,0,41,20.4077V18.3506c0-3.7608-2.7637-4.6939-4.249-5.1953a7.691,7.691,0,0,1-1.086-.4253,5.8931,5.8931,0,0,0,1.9141-4.3345V5.9536a6.08,6.08,0,0,0-12.1582,0V8.3955A5.8924,5.8924,0,0,0,27.335,12.73a7.69,7.69,0,0,1-1.086.4258C24.7642,13.6567,22,14.5894,22,18.3506v2.0571A1.6014,1.6014,0,0,0,23.6069,22H30V32.1191L15.5791,39.9974V38.9541A6.0243,6.0243,0,0,0,9.5,33a6.0243,6.0243,0,0,0-6.0791,5.9541v2.4414a5.8955,5.8955,0,0,0,1.9145,4.335,7.8555,7.8555,0,0,1-1.0859.4257C2.7642,46.6562,0,47.5889,0,51.3506v2.0576A1.601,1.601,0,0,0,1.6069,55H17.3931A1.601,1.601,0,0,0,19,53.4082V51.3506c0-3.7617-2.7642-4.6944-4.249-5.1944a7.8429,7.8429,0,0,1-1.0864-.4257,5.9141,5.9141,0,0,0,1.8323-3.4085L30.7274,34l16.0788,9.4582a5.953,5.953,0,0,0,1.5288,2.2722,7.8585,7.8585,0,0,1-1.086.4257c-1.4853.5-4.249,1.4327-4.249,5.1944v2.0576A1.6011,1.6011,0,0,0,44.6074,55H60.3926A1.6011,1.6011,0,0,0,62,53.4082V51.3506C62,47.5889,59.2363,46.6562,57.752,46.1562ZM24,18.3506c0-2.3252,1.4033-2.7988,2.8887-3.3,1.1855-.4,2.5293-.8535,2.7441-2.4268l.085-.6206-.5215-.3467a3.926,3.926,0,0,1-1.7754-3.2612V5.9536a4.0811,4.0811,0,0,1,8.1582,0V8.3955a3.9272,3.9272,0,0,1-1.7754,3.2612l-.52.3467.084.62c.2139,1.5733,1.5586,2.0269,2.7451,2.4268,1.4844.5015,2.8877.9751,2.8877,3.3V20H24Zm-9.8882,29.7c1.4854.501,2.8882.9736,2.8882,3.3V53H2V51.3506c0-2.3262,1.4028-2.7988,2.8887-3.3,1.1855-.4,2.5293-.8545,2.7441-2.4258l.085-.62-.521-.3477a3.9287,3.9287,0,0,1-1.7759-3.2617V38.9541A4.0225,4.0225,0,0,1,9.5,35a4.0225,4.0225,0,0,1,4.0791,3.9541V41.09l-.0586.032.0586.1073v.1661a3.9287,3.9287,0,0,1-1.7759,3.2617l-.521.3477.085.62C11.582,47.1963,12.9258,47.65,14.1118,48.0508ZM60,53H45V51.3506c0-2.3252,1.4023-2.7988,2.8887-3.3,1.1855-.4,2.53-.8545,2.7441-2.4268l.084-.62-.52-.3467a3.9567,3.9567,0,0,1-1.6936-2.5125l.0041-.007-.0062-.0037a3.8027,3.8027,0,0,1-.08-.7385V38.9541a4.0811,4.0811,0,0,1,8.1582,0v2.4414a3.9294,3.9294,0,0,1-1.7754,3.2617l-.52.3467.084.62c.2139,1.5723,1.5586,2.0264,2.7451,2.4268,1.4854.501,2.8877.9746,2.8877,3.3Z"></path></svg>