<svg xmlns="http://www.w3.org/2000/svg" id="acd487e6-35d3-44a6-a0d2-b7f92e2182e2" data-name="Layer 1" width="54" height="64.1196" viewBox="0 0 54 64.1196"><g id="a177c2ac-05d2-4b7a-aa36-7a5a9e842da9" data-name="Page-1"><g id="f0dca936-7a93-40af-9707-7af46efe31da" data-name="Virtual-Assistant"><g id="fa68e477-bbbd-4037-ab3f-980aa1d2b24f" data-name="Group-10-Copy"><g id="bd0e9e60-41a6-41eb-b537-6c40fae82aef" data-name="pin"><g id="a65b77a6-f262-438a-bc48-494c3e1f3fc8" data-name="Shape"><path d="M26.991.88a19.9963,19.9963,0,0,0-20,19.9478,22.9627,22.9627,0,0,0,1.6965,7.68A32.1457,32.1457,0,0,0,10.9992,32.82l13.713,20.7235a2.6115,2.6115,0,0,0,4.5576.0011L42.9839,32.82a31.9993,31.9993,0,0,0,2.3118-4.3123,22.96,22.96,0,0,0,1.6953-7.68A19.9963,19.9963,0,0,0,26.991.88ZM43.1263,27.5976a29.4476,29.4476,0,0,1-2.1071,3.9309L27.3051,52.2531c-.2706.4095-.3565.4095-.627,0L12.9639,31.5285a29.4722,29.4722,0,0,1-2.107-3.9321,20.8459,20.8459,0,0,1-1.513-6.7682,17.6472,17.6472,0,0,1,35.2942,0A20.8631,20.8631,0,0,1,43.1263,27.5976Z" transform="translate(0 -0.8804)"></path></g></g><g id="ab6c6e43-0044-42de-b1df-e42ef5e4f1a5" data-name="Star"><path d="M32.8779,30.09,27,27l-5.8779,3.09,1.1225-6.5454L17.4888,18.91l6.5722-.9546L27,12l2.9385,5.9551,6.5722.9546-4.7558,4.6352ZM27,24.74l3.2217,1.6939-.6153-3.5874,2.6055-2.54-3.6015-.523L27,16.52l-1.6108,3.2637-3.6016.523,2.6064,2.54-.6157,3.5874Z" transform="translate(0 -0.8804)"></path></g><g id="ee319856-cb95-40b3-b316-05db82451e01" data-name="Path"><path d="M36.2117,49.0066a.9608.9608,0,0,0-1.0044.9323.9986.9986,0,0,0,.8293,1.0974c11.73,1.22,16.1013,4.1615,16.1013,5.7335,0,2.5854-9.5626,6.1913-25.1379,6.1913S1.8621,59.3552,1.8621,56.77c0-1.572,4.3758-4.5132,16.1013-5.7365a1.0011,1.0011,0,0,0,.8272-1.1217.9583.9583,0,0,0-1.0023-.9081C13.6154,49.4388,0,51.2759,0,56.77,0,62.173,13.5829,65,27,65s27-2.827,27-8.23C54,51.2759,40.3846,49.4388,36.2117,49.0066Z" transform="translate(0 -0.8804)"></path></g></g></g></g></svg>