<svg xmlns="http://www.w3.org/2000/svg" id="bbc6c1e0-3fc9-4a96-be44-bd18499d8616" data-name="Layer 1" width="62" height="58" viewBox="0 0 62 58"><path d="M36.8945,33.3c-1.2324-.4111-1.78-.6523-2.0244-.9707a7.4378,7.4378,0,0,0,2.84-5.8149V23.2461a7.7829,7.7829,0,0,0-15.5577,0v3.2681a7.4378,7.4378,0,0,0,2.84,5.8149c-.2451.3184-.7925.56-2.0259.9707-2.0376.68-5.4473,1.8184-5.4473,6.5391v2.7529a1.71,1.71,0,0,0,1.7222,1.6934h21.38a1.7107,1.7107,0,0,0,1.7227-1.6934V39.8389C42.3438,35.1182,38.9326,33.98,36.8945,33.3Zm3.6485,9.1846H19.3188V39.8389c0-3.4239,2.2408-4.1719,4.2183-4.8321,1.626-.542,3.1611-1.0537,3.415-2.8906l.0777-.5625-.4741-.3125a5.6731,5.6731,0,0,1-2.6036-4.727V23.2461a5.9839,5.9839,0,0,1,11.9571,0v3.2681a5.674,5.674,0,0,1-2.6026,4.727l-.4736.3125.0772.5625c.2529,1.8359,1.788,2.3486,3.415,2.8916,1.9775.6592,4.2178,1.4072,4.2178,4.8311Z" transform="translate(0 -1)"></path><path d="M58.0654,20.0444l-.8291.3291a9.9989,9.9989,0,0,1-3.706.7032A9.8831,9.8831,0,0,1,46.6113,18.3a9.2576,9.2576,0,0,1-1.17-12.0386L45.9775,5.5,45.17,5.0347A30.6321,30.6321,0,0,0,29.9312,1,30.2244,30.2244,0,0,0,8.7666,9.4941a28.3659,28.3659,0,0,0,0,41.0118A30.2252,30.2252,0,0,0,29.9312,59a30.2243,30.2243,0,0,0,21.1645-8.4941,28.3493,28.3493,0,0,0,7.2588-29.6172ZM49.9121,49.2852a28.53,28.53,0,0,1-19.9809,8.0156,28.5346,28.5346,0,0,1-19.982-8.0156,26.6678,26.6678,0,0,1,0-38.57A28.535,28.535,0,0,1,29.9312,2.7a28.9691,28.9691,0,0,1,13.61,3.376A10.9613,10.9613,0,0,0,45.4277,19.521,11.5776,11.5776,0,0,0,53.53,22.7769a11.7368,11.7368,0,0,0,3.48-.522,26.65,26.65,0,0,1-7.0977,27.03Z" transform="translate(0 -1)"></path><path d="M53.9824,18.9272A7.9728,7.9728,0,0,0,62,11.0181a8.0178,8.0178,0,0,0-16.0342,0A7.9726,7.9726,0,0,0,53.9824,18.9272Zm0-14.3183A6.4713,6.4713,0,0,1,60.5,11.0181a6.518,6.518,0,0,1-13.0342,0A6.4705,6.4705,0,0,1,53.9824,4.6089Z" transform="translate(0 -1)"></path><polygon points="53.441 13 54.559 13 54.559 10.396 57 10.396 57 9.406 54.559 9.406 54.559 7 53.441 7 53.441 9.406 51 9.406 51 10.396 53.441 10.396 53.441 13"></polygon></svg>