<svg xmlns="http://www.w3.org/2000/svg" xmlns:xlink="http://www.w3.org/1999/xlink" version="1.1" viewBox="0 0 512 512" xml:space="preserve"><g id="_x36_28_x2C__Balance_x2C__decision_x2C__justice_x2C__law_x2C__scale"><g><path d="M177.232,311.488c12.178-12.177,19.979-28.75,20.839-47.121H55.343    c0.871,18.396,8.662,34.944,20.839,47.093c12.926,12.953,30.786,20.946,50.523,20.946    C146.447,332.406,164.307,324.387,177.232,311.488 M84.616,257.503h83.712l-41.633-111.161L84.616,257.503z M435.815,311.46    c12.175-12.148,19.979-28.696,20.836-47.093H313.927c0.856,18.371,8.676,34.944,20.836,47.093    c12.926,12.953,30.789,20.946,50.526,20.946S422.89,324.387,435.815,311.46z M343.196,257.503h83.716l-41.637-111.161    L343.196,257.503z M278.526,369.093l-20.383-162.009L237.76,369.039c0.095,0.349,0.162,0.697,0.162,1.045l-0.937,6.09h42.303    l-0.87-5.553C278.337,370.084,278.379,369.575,278.526,369.093z M285.98,373.518l0.698,5.686l0.024,0.322l0.028,0.08    c0,1.904-1.54,3.432-3.432,3.432h-50.313h-0.014c-1.888,0-3.418-1.527-3.418-3.432v-0.055l0.053-0.482l0.081-0.509l0.618-5.042    h-60.514v21.857h176.703v-21.857H285.98z M350.021,402.24h-0.091H166.359h-0.095h-47.27v9.467h278.282v-9.467H350.021z     M274.153,120.622c-2.187-2.198-4.825-3.941-7.776-5.097v21.107c0,2.279-0.927,4.318-2.415,5.82    c-1.513,1.502-3.58,2.438-5.818,2.438c-2.267,0-4.317-0.937-5.819-2.413c-1.502-1.527-2.429-3.566-2.429-5.846v-21.107    c-2.881,1.127-5.471,2.816-7.629,4.936l-0.162,0.161c-4.088,4.103-6.623,9.762-6.623,16.011c0,6.274,2.534,11.934,6.623,16.037    c4.106,4.104,9.777,6.625,16.039,6.625c6.25,0,11.922-2.521,16.01-6.625c4.103-4.104,6.65-9.763,6.65-16.037    C280.804,130.384,278.256,124.725,274.153,120.622z M71.501,283.919c-0.495-1.825,0.576-3.702,2.401-4.212    c1.825-0.482,3.702,0.59,4.211,2.415c0,0.026,3.243,13.274,16.989,21.696c1.607,0.99,2.116,3.082,1.141,4.691    c-0.979,1.609-3.099,2.12-4.71,1.153C75.375,299.794,71.515,283.945,71.501,283.919z M153.525,435.655    c-1.825,0-3.299-1.502-3.299-3.299c0-1.823,1.474-3.299,3.299-3.299h215.378c1.812,0,3.299,1.476,3.299,3.299    c0,1.797-1.487,3.299-3.299,3.299H153.525z M262.06,455.179c-1.824,0-3.299-1.474-3.299-3.271c0-1.825,1.475-3.299,3.299-3.299    h178.382c1.811,0,3.299,1.474,3.299,3.299c0,1.797-1.488,3.271-3.299,3.271H262.06z M458.704,455.179    c-1.824,0-3.299-1.474-3.299-3.271c0-1.825,1.475-3.299,3.299-3.299h22.3c1.825,0,3.299,1.474,3.299,3.299    c0,1.797-1.474,3.271-3.299,3.271H458.704z M100.96,454.59c-1.821,0-3.295-1.477-3.295-3.299c0-1.797,1.474-3.3,3.295-3.3h84.533    c1.811,0,3.299,1.503,3.299,3.3c0,1.822-1.488,3.299-3.299,3.299H100.96z M461.961,325.219c-2.853,2.869,1.583,7.723,4.857,4.451    c1.513-1.715,3.001-3.353,4.45-5.121c2.804-3.729-2.71-7.375-5.124-4.157C464.779,322.053,463.396,323.609,461.961,325.219z     M442.547,341.711c-0.523,0.322-1.021,0.966-1.207,1.448c-1.236,3.085,1.996,5.767,4.825,4.05c1.905-1.233,3.73-2.548,5.566-3.889    c2.747-2.064,0.846-6.571-2.668-5.873c-0.47,0.107-0.912,0.321-1.288,0.59C446.088,339.325,444.329,340.559,442.547,341.711z     M419.725,353.027c-4.373,1.745-1.545,7.699,2.172,6.223c2.116-0.725,4.265-1.582,6.342-2.44c3.85-1.555,1.597-7.751-2.576-6.062    C423.732,351.555,421.707,352.332,419.725,353.027z M394.811,358.418c-3.809,0-4.292,6.544,0.59,6.544L394.811,358.418z     M369.317,357.615c-4.046-0.806-5.443,5.792-1.056,6.517c2.211,0.402,4.582,0.563,6.812,0.83c5.054,0,4.208-6.544,0.575-6.544    C373.729,358.071,371.342,357.91,369.317,357.615z M344.807,350.695c-4.169-1.663-6.45,4.505-2.562,6.062    c2.092,0.884,4.184,1.716,6.331,2.44c3.727,1.501,6.518-4.479,2.197-6.195C348.762,352.277,346.779,351.527,344.807,350.695z     M322.693,337.957c-3.432-2.574-7.401,2.683-3.955,5.283c1.783,1.395,3.717,2.654,5.594,3.914c3.98,2.415,7.051-3.432,3.594-5.497    C326.129,340.451,324.424,339.244,322.693,337.957z M304.353,320.284c-2.442-3.272-7.857,0.509-5.162,4.103    c1.46,1.771,2.934,3.514,4.492,5.203c3.323,3.299,7.683-1.635,4.854-4.451C307.14,323.609,305.612,321.92,304.353,320.284z     M290.862,298.803c-1.474-3.701-7.696-1.528-5.98,2.762c1.004,2.012,1.944,3.996,3.029,5.98c2.414,4.023,7.844,0.295,5.794-3.138    C292.712,302.529,291.774,300.707,290.862,298.803z M485.682,301.591c1.787-4.452-4.517-6.382-5.966-2.788    c-0.912,1.93-1.863,3.808-2.882,5.686c-2.172,3.62,3.499,6.945,5.777,3.164C483.699,305.641,484.703,303.656,485.682,301.591z     M203.381,325.219c-2.857,2.869,1.583,7.723,4.854,4.451c1.516-1.689,3.004-3.353,4.454-5.121c2.8-3.729-2.709-7.375-5.124-4.157    C206.196,322.053,204.816,323.609,203.381,325.219z M183.963,341.711c-0.522,0.322-1.003,0.966-1.207,1.448    c-1.232,3.085,2,5.767,4.843,4.05c1.888-1.233,3.713-2.548,5.552-3.889c2.748-2.064,0.842-6.571-2.67-5.873    c-0.467,0.107-0.913,0.321-1.288,0.59C187.504,339.325,185.746,340.559,183.963,341.711z M161.141,353.027    c-4.369,1.745-1.526,7.699,2.173,6.223c2.12-0.725,4.264-1.555,6.331-2.44c3.808-1.528,1.526-7.723-2.548-6.087    C165.138,351.555,163.152,352.332,161.141,353.027z M136.227,358.418c-3.794,0-4.289,6.544,0.589,6.544L136.227,358.418z     M110.737,357.615c-4.05-0.806-5.433,5.792-1.06,6.517c2.225,0.402,4.573,0.563,6.812,0.83c5.054,0,4.211-6.544,0.576-6.544    C115.282,358.043,112.682,357.91,110.737,357.615z M86.238,350.695c-4.184-1.663-6.461,4.505-2.573,6.062    c2.092,0.884,4.208,1.716,6.342,2.44c3.794,1.529,6.313-4.561,2.386-6.115C90.33,352.25,88.276,351.555,86.238,350.695z     M64.128,337.957c-3.446-2.574-7.402,2.683-3.945,5.283c1.839,1.367,3.66,2.654,5.566,3.914c3.983,2.415,7.054-3.432,3.594-5.523    C67.56,340.479,65.83,339.244,64.128,337.957z M45.77,320.284c-2.439-3.272-7.858,0.509-5.163,4.103    c1.45,1.771,2.938,3.514,4.492,5.203c3.327,3.299,7.683-1.635,4.854-4.479C48.503,323.555,47.11,321.946,45.77,320.284z     M32.279,298.803c-1.474-3.701-7.696-1.528-5.98,2.762c1.007,2.012,1.93,3.996,3.032,5.98c2.411,4.023,7.844,0.295,5.791-3.138    C34.104,302.557,33.191,300.707,32.279,298.803z M227.102,301.591c1.783-4.452-4.521-6.382-5.966-2.788    c-0.926,1.957-1.877,3.808-2.899,5.712c-2.144,3.567,3.541,6.919,5.742,3.244C225.105,305.803,226.151,303.656,227.102,301.591z     M261.442,136.633c0,1.822-1.488,3.299-3.299,3.299c-1.825,0-3.299-1.477-3.299-3.299V60.119c0-1.822,1.474-3.299,3.299-3.299    c1.811,0,3.299,1.477,3.299,3.299V136.633z M266.377,108.555c4.772,1.393,9.036,3.969,12.444,7.401    c5.296,5.284,8.581,12.604,8.581,20.677c0,8.1-3.285,15.395-8.581,20.703c-5.285,5.284-12.606,8.555-20.678,8.555    c-8.086,0-15.393-3.271-20.688-8.555c-5.299-5.309-8.57-12.604-8.57-20.703c0-8.072,3.271-15.393,8.57-20.677l0.2-0.188    c3.394-3.324,7.577-5.82,12.241-7.213V97.747c-7.668,1.636-14.522,5.443-19.856,10.779c-6.437,6.437-10.676,15.073-11.508,24.673    h-88.527V100.16c0-1.824-1.474-3.299-3.299-3.299c-1.807,0-3.295,1.475-3.295,3.299v33.039h-22.489    c-1.983,0-3.608,1.556-3.608,3.434c0,1.903,1.625,3.432,3.608,3.432h117.625c0.817,9.602,5.057,18.237,11.494,24.674    c6.998,7,16.6,11.396,27.233,11.639c0.4-0.106,0.843-0.135,1.274-0.08l0.456,0.08c10.62-0.214,20.232-4.639,27.244-11.639    c6.426-6.437,10.662-15.072,11.479-24.674h117.639c1.973,0,3.58-1.528,3.58-3.432c0-1.878-1.607-3.434-3.58-3.434h-26.777V100.16    c0-1.824-1.474-3.299-3.299-3.299c-1.824,0-3.299,1.475-3.299,3.299v33.039h-84.249c-0.818-9.6-5.068-18.236-11.494-24.673    c-5.349-5.336-12.199-9.144-19.87-10.779V108.555z"></path></g></g><g></g></svg>