<?xml version="1.0" encoding="iso-8859-1"?>
<!-- Generator: Adobe Illustrator 19.0.0, SVG Export Plug-In . SVG Version: 6.00 Build 0)  -->
<svg version="1.1" id="Capa_1" xmlns="http://www.w3.org/2000/svg" xmlns:xlink="http://www.w3.org/1999/xlink" x="0px" y="0px"
	 viewBox="0 0 483.12 483.12" style="enable-background:new 0 0 483.12 483.12;" xml:space="preserve">
<g>
	<g>
		<path fill="#ec5242" d="M2.728,366.416c6.8,4.9,21.5-1.2,37.2-15.5c28.1-25.7,56.6-51.4,83.4-78.6c41.4-41.9,81.7-84.9,122.4-127.4
			c67,79.4,145.5,150,217.8,225.4c3.4,3.6,11.4,6.6,14.9,6.6c6.9,0,5.3-7.4,0.9-16.3c-14.7-29.3-38.2-59.1-64.4-87.1
			c-51-54.3-101.2-109.2-154.5-161.7l-0.2-0.2l0,0c-7.4-7.3-19.3-7.2-26.6,0.2c-12.6,12.8-25.2,25.8-37.5,39
			c-8.4,7.9-16.8,15.7-25.1,23.6c-52.7,50.4-104.6,101.6-153,155.8C4.128,345.716-4.772,361.116,2.728,366.416z"/>
	</g>
</g>
<g>
</g>
<g>
</g>
<g>
</g>
<g>
</g>
<g>
</g>
<g>
</g>
<g>
</g>
<g>
</g>
<g>
</g>
<g>
</g>
<g>
</g>
<g>
</g>
<g>
</g>
<g>
</g>
<g>
</g>
</svg>
